<mxfile host="app.diagrams.net" modified="2023-09-10T05:06:24.974Z" agent="Mozilla/5.0 (Windows NT 10.0; Win64; x64) AppleWebKit/537.36 (KHTML, like Gecko) Chrome/116.0.0.0 Safari/537.36" etag="HEIRas8f85rQYhLZ23YQ" version="21.7.2" type="github">
  <diagram name="Page-1" id="Dl1YvaqPWP9BaevLSPwy">
    <mxGraphModel dx="455" dy="676" grid="1" gridSize="10" guides="1" tooltips="1" connect="1" arrows="1" fold="1" page="1" pageScale="1" pageWidth="3300" pageHeight="4681" math="0" shadow="0">
      <root>
        <mxCell id="0" />
        <mxCell id="1" parent="0" />
        <mxCell id="kak4AT-FFlZXdtaRiK7g-7" style="edgeStyle=orthogonalEdgeStyle;rounded=0;orthogonalLoop=1;jettySize=auto;html=1;exitX=0.5;exitY=1;exitDx=0;exitDy=0;entryX=0.5;entryY=0;entryDx=0;entryDy=0;" edge="1" parent="1" source="kak4AT-FFlZXdtaRiK7g-1" target="kak4AT-FFlZXdtaRiK7g-3">
          <mxGeometry relative="1" as="geometry" />
        </mxCell>
        <mxCell id="kak4AT-FFlZXdtaRiK7g-1" value="Start" style="rounded=1;whiteSpace=wrap;html=1;" vertex="1" parent="1">
          <mxGeometry x="180" y="100" width="80" height="40" as="geometry" />
        </mxCell>
        <mxCell id="kak4AT-FFlZXdtaRiK7g-2" value="&lt;font style=&quot;font-size: 15px;&quot;&gt;&lt;b&gt;handleBoundary&lt;/b&gt;&lt;/font&gt;" style="text;strokeColor=none;align=center;fillColor=none;html=1;verticalAlign=middle;whiteSpace=wrap;rounded=0;" vertex="1" parent="1">
          <mxGeometry x="140" y="40" width="160" height="40" as="geometry" />
        </mxCell>
        <mxCell id="kak4AT-FFlZXdtaRiK7g-8" style="edgeStyle=orthogonalEdgeStyle;rounded=0;orthogonalLoop=1;jettySize=auto;html=1;exitX=0.5;exitY=1;exitDx=0;exitDy=0;entryX=0.5;entryY=0;entryDx=0;entryDy=0;" edge="1" parent="1" source="kak4AT-FFlZXdtaRiK7g-3" target="kak4AT-FFlZXdtaRiK7g-4">
          <mxGeometry relative="1" as="geometry" />
        </mxCell>
        <mxCell id="kak4AT-FFlZXdtaRiK7g-9" style="edgeStyle=orthogonalEdgeStyle;rounded=0;orthogonalLoop=1;jettySize=auto;html=1;exitX=1;exitY=0.5;exitDx=0;exitDy=0;entryX=0.471;entryY=0;entryDx=0;entryDy=0;entryPerimeter=0;" edge="1" parent="1" source="kak4AT-FFlZXdtaRiK7g-3" target="kak4AT-FFlZXdtaRiK7g-5">
          <mxGeometry relative="1" as="geometry" />
        </mxCell>
        <mxCell id="kak4AT-FFlZXdtaRiK7g-3" value="if x &amp;lt; 0" style="shape=hexagon;perimeter=hexagonPerimeter2;whiteSpace=wrap;html=1;fixedSize=1;" vertex="1" parent="1">
          <mxGeometry x="175" y="190" width="90" height="40" as="geometry" />
        </mxCell>
        <mxCell id="kak4AT-FFlZXdtaRiK7g-12" style="edgeStyle=orthogonalEdgeStyle;rounded=0;orthogonalLoop=1;jettySize=auto;html=1;exitX=0.5;exitY=1;exitDx=0;exitDy=0;entryX=0;entryY=0.5;entryDx=0;entryDy=0;" edge="1" parent="1" source="kak4AT-FFlZXdtaRiK7g-4" target="kak4AT-FFlZXdtaRiK7g-11">
          <mxGeometry relative="1" as="geometry" />
        </mxCell>
        <mxCell id="kak4AT-FFlZXdtaRiK7g-4" value="x = 0" style="rounded=1;whiteSpace=wrap;html=1;" vertex="1" parent="1">
          <mxGeometry x="185" y="290" width="70" height="40" as="geometry" />
        </mxCell>
        <mxCell id="kak4AT-FFlZXdtaRiK7g-10" style="edgeStyle=orthogonalEdgeStyle;rounded=0;orthogonalLoop=1;jettySize=auto;html=1;exitX=0.5;exitY=1;exitDx=0;exitDy=0;" edge="1" parent="1" source="kak4AT-FFlZXdtaRiK7g-5" target="kak4AT-FFlZXdtaRiK7g-6">
          <mxGeometry relative="1" as="geometry" />
        </mxCell>
        <mxCell id="kak4AT-FFlZXdtaRiK7g-18" style="edgeStyle=orthogonalEdgeStyle;rounded=0;orthogonalLoop=1;jettySize=auto;html=1;exitX=1;exitY=0.5;exitDx=0;exitDy=0;entryX=1;entryY=0.5;entryDx=0;entryDy=0;" edge="1" parent="1" source="kak4AT-FFlZXdtaRiK7g-5" target="kak4AT-FFlZXdtaRiK7g-11">
          <mxGeometry relative="1" as="geometry">
            <Array as="points">
              <mxPoint x="510" y="275" />
              <mxPoint x="510" y="480" />
            </Array>
          </mxGeometry>
        </mxCell>
        <mxCell id="kak4AT-FFlZXdtaRiK7g-5" value="if x &amp;gt; SIGame.WIDTH" style="shape=hexagon;perimeter=hexagonPerimeter2;whiteSpace=wrap;html=1;fixedSize=1;" vertex="1" parent="1">
          <mxGeometry x="300" y="250" width="170" height="50" as="geometry" />
        </mxCell>
        <mxCell id="kak4AT-FFlZXdtaRiK7g-16" style="edgeStyle=orthogonalEdgeStyle;rounded=0;orthogonalLoop=1;jettySize=auto;html=1;exitX=0;exitY=0.5;exitDx=0;exitDy=0;" edge="1" parent="1" source="kak4AT-FFlZXdtaRiK7g-6" target="kak4AT-FFlZXdtaRiK7g-11">
          <mxGeometry relative="1" as="geometry" />
        </mxCell>
        <mxCell id="kak4AT-FFlZXdtaRiK7g-6" value="x = SIGame.WIDTH" style="rounded=1;whiteSpace=wrap;html=1;" vertex="1" parent="1">
          <mxGeometry x="320" y="350" width="130" height="50" as="geometry" />
        </mxCell>
        <mxCell id="kak4AT-FFlZXdtaRiK7g-11" value="End" style="rounded=1;whiteSpace=wrap;html=1;" vertex="1" parent="1">
          <mxGeometry x="255" y="460" width="70" height="40" as="geometry" />
        </mxCell>
        <mxCell id="kak4AT-FFlZXdtaRiK7g-14" value="True" style="text;strokeColor=none;align=center;fillColor=none;html=1;verticalAlign=middle;whiteSpace=wrap;rounded=0;" vertex="1" parent="1">
          <mxGeometry x="210" y="230" width="60" height="30" as="geometry" />
        </mxCell>
        <mxCell id="kak4AT-FFlZXdtaRiK7g-15" value="True" style="text;strokeColor=none;align=center;fillColor=none;html=1;verticalAlign=middle;whiteSpace=wrap;rounded=0;" vertex="1" parent="1">
          <mxGeometry x="380" y="300" width="60" height="30" as="geometry" />
        </mxCell>
        <mxCell id="kak4AT-FFlZXdtaRiK7g-17" value="False" style="text;strokeColor=none;align=center;fillColor=none;html=1;verticalAlign=middle;whiteSpace=wrap;rounded=0;" vertex="1" parent="1">
          <mxGeometry x="260" y="180" width="60" height="30" as="geometry" />
        </mxCell>
        <mxCell id="kak4AT-FFlZXdtaRiK7g-19" value="False" style="text;strokeColor=none;align=center;fillColor=none;html=1;verticalAlign=middle;whiteSpace=wrap;rounded=0;" vertex="1" parent="1">
          <mxGeometry x="460" y="250" width="60" height="30" as="geometry" />
        </mxCell>
        <mxCell id="kak4AT-FFlZXdtaRiK7g-26" style="edgeStyle=orthogonalEdgeStyle;rounded=0;orthogonalLoop=1;jettySize=auto;html=1;exitX=0.5;exitY=1;exitDx=0;exitDy=0;" edge="1" parent="1" source="kak4AT-FFlZXdtaRiK7g-21" target="kak4AT-FFlZXdtaRiK7g-23">
          <mxGeometry relative="1" as="geometry" />
        </mxCell>
        <mxCell id="kak4AT-FFlZXdtaRiK7g-21" value="Start" style="rounded=1;whiteSpace=wrap;html=1;" vertex="1" parent="1">
          <mxGeometry x="715" y="100" width="80" height="40" as="geometry" />
        </mxCell>
        <mxCell id="kak4AT-FFlZXdtaRiK7g-22" value="&lt;font size=&quot;1&quot; style=&quot;&quot;&gt;&lt;b style=&quot;font-size: 15px;&quot;&gt;moveMissiles&lt;/b&gt;&lt;/font&gt;" style="text;strokeColor=none;align=center;fillColor=none;html=1;verticalAlign=middle;whiteSpace=wrap;rounded=0;" vertex="1" parent="1">
          <mxGeometry x="690" y="40" width="130" height="30" as="geometry" />
        </mxCell>
        <mxCell id="kak4AT-FFlZXdtaRiK7g-27" style="edgeStyle=orthogonalEdgeStyle;rounded=0;orthogonalLoop=1;jettySize=auto;html=1;exitX=0.5;exitY=1;exitDx=0;exitDy=0;entryX=0.5;entryY=0;entryDx=0;entryDy=0;" edge="1" parent="1" source="kak4AT-FFlZXdtaRiK7g-23" target="kak4AT-FFlZXdtaRiK7g-24">
          <mxGeometry relative="1" as="geometry" />
        </mxCell>
        <mxCell id="kak4AT-FFlZXdtaRiK7g-30" style="edgeStyle=orthogonalEdgeStyle;rounded=0;orthogonalLoop=1;jettySize=auto;html=1;exitX=1;exitY=0.5;exitDx=0;exitDy=0;entryX=1;entryY=0.5;entryDx=0;entryDy=0;" edge="1" parent="1" source="kak4AT-FFlZXdtaRiK7g-23" target="kak4AT-FFlZXdtaRiK7g-25">
          <mxGeometry relative="1" as="geometry">
            <Array as="points">
              <mxPoint x="885" y="225" />
              <mxPoint x="885" y="460" />
            </Array>
          </mxGeometry>
        </mxCell>
        <mxCell id="kak4AT-FFlZXdtaRiK7g-23" value="for: next in invaders" style="shape=hexagon;perimeter=hexagonPerimeter2;whiteSpace=wrap;html=1;fixedSize=1;" vertex="1" parent="1">
          <mxGeometry x="670" y="200" width="170" height="50" as="geometry" />
        </mxCell>
        <mxCell id="kak4AT-FFlZXdtaRiK7g-29" style="edgeStyle=orthogonalEdgeStyle;rounded=0;orthogonalLoop=1;jettySize=auto;html=1;exitX=0;exitY=0.5;exitDx=0;exitDy=0;entryX=0;entryY=0.5;entryDx=0;entryDy=0;" edge="1" parent="1" source="kak4AT-FFlZXdtaRiK7g-24" target="kak4AT-FFlZXdtaRiK7g-23">
          <mxGeometry relative="1" as="geometry" />
        </mxCell>
        <mxCell id="kak4AT-FFlZXdtaRiK7g-24" value="next.move()" style="rounded=1;whiteSpace=wrap;html=1;" vertex="1" parent="1">
          <mxGeometry x="705" y="320" width="100" height="50" as="geometry" />
        </mxCell>
        <mxCell id="kak4AT-FFlZXdtaRiK7g-25" value="End" style="rounded=1;whiteSpace=wrap;html=1;" vertex="1" parent="1">
          <mxGeometry x="720" y="440" width="70" height="40" as="geometry" />
        </mxCell>
        <mxCell id="kak4AT-FFlZXdtaRiK7g-31" value="True" style="text;strokeColor=none;align=center;fillColor=none;html=1;verticalAlign=middle;whiteSpace=wrap;rounded=0;" vertex="1" parent="1">
          <mxGeometry x="745" y="250" width="60" height="30" as="geometry" />
        </mxCell>
        <mxCell id="kak4AT-FFlZXdtaRiK7g-32" value="False" style="text;strokeColor=none;align=center;fillColor=none;html=1;verticalAlign=middle;whiteSpace=wrap;rounded=0;" vertex="1" parent="1">
          <mxGeometry x="835" y="195" width="60" height="30" as="geometry" />
        </mxCell>
        <mxCell id="kak4AT-FFlZXdtaRiK7g-38" style="edgeStyle=orthogonalEdgeStyle;rounded=0;orthogonalLoop=1;jettySize=auto;html=1;exitX=0.5;exitY=1;exitDx=0;exitDy=0;entryX=0.5;entryY=0;entryDx=0;entryDy=0;" edge="1" parent="1" source="kak4AT-FFlZXdtaRiK7g-33" target="kak4AT-FFlZXdtaRiK7g-35">
          <mxGeometry relative="1" as="geometry" />
        </mxCell>
        <mxCell id="kak4AT-FFlZXdtaRiK7g-33" value="Start" style="rounded=1;whiteSpace=wrap;html=1;" vertex="1" parent="1">
          <mxGeometry x="1150" y="100" width="80" height="40" as="geometry" />
        </mxCell>
        <mxCell id="kak4AT-FFlZXdtaRiK7g-34" value="&lt;font style=&quot;font-size: 15px;&quot;&gt;&lt;b&gt;checkGameOver&lt;/b&gt;&lt;/font&gt;" style="text;strokeColor=none;align=center;fillColor=none;html=1;verticalAlign=middle;whiteSpace=wrap;rounded=0;" vertex="1" parent="1">
          <mxGeometry x="1110" y="40" width="160" height="30" as="geometry" />
        </mxCell>
        <mxCell id="kak4AT-FFlZXdtaRiK7g-39" style="edgeStyle=orthogonalEdgeStyle;rounded=0;orthogonalLoop=1;jettySize=auto;html=1;exitX=0.5;exitY=1;exitDx=0;exitDy=0;" edge="1" parent="1" source="kak4AT-FFlZXdtaRiK7g-35" target="kak4AT-FFlZXdtaRiK7g-36">
          <mxGeometry relative="1" as="geometry" />
        </mxCell>
        <mxCell id="kak4AT-FFlZXdtaRiK7g-50" style="edgeStyle=orthogonalEdgeStyle;rounded=0;orthogonalLoop=1;jettySize=auto;html=1;exitX=1;exitY=0.5;exitDx=0;exitDy=0;entryX=1;entryY=0.5;entryDx=0;entryDy=0;" edge="1" parent="1" source="kak4AT-FFlZXdtaRiK7g-35" target="kak4AT-FFlZXdtaRiK7g-46">
          <mxGeometry relative="1" as="geometry">
            <Array as="points">
              <mxPoint x="1320" y="225" />
              <mxPoint x="1320" y="585" />
            </Array>
          </mxGeometry>
        </mxCell>
        <mxCell id="kak4AT-FFlZXdtaRiK7g-35" value="for: next in invaders" style="shape=hexagon;perimeter=hexagonPerimeter2;whiteSpace=wrap;html=1;fixedSize=1;" vertex="1" parent="1">
          <mxGeometry x="1105" y="200" width="170" height="50" as="geometry" />
        </mxCell>
        <mxCell id="kak4AT-FFlZXdtaRiK7g-40" style="edgeStyle=orthogonalEdgeStyle;rounded=0;orthogonalLoop=1;jettySize=auto;html=1;exitX=0.5;exitY=1;exitDx=0;exitDy=0;" edge="1" parent="1" source="kak4AT-FFlZXdtaRiK7g-36" target="kak4AT-FFlZXdtaRiK7g-37">
          <mxGeometry relative="1" as="geometry" />
        </mxCell>
        <mxCell id="kak4AT-FFlZXdtaRiK7g-45" style="edgeStyle=orthogonalEdgeStyle;rounded=0;orthogonalLoop=1;jettySize=auto;html=1;exitX=0;exitY=0.5;exitDx=0;exitDy=0;entryX=0;entryY=0.5;entryDx=0;entryDy=0;" edge="1" parent="1" source="kak4AT-FFlZXdtaRiK7g-36" target="kak4AT-FFlZXdtaRiK7g-35">
          <mxGeometry relative="1" as="geometry">
            <Array as="points">
              <mxPoint x="1050" y="345" />
              <mxPoint x="1050" y="225" />
            </Array>
          </mxGeometry>
        </mxCell>
        <mxCell id="kak4AT-FFlZXdtaRiK7g-36" value="if next.getY() &amp;gt; HEIGHT" style="shape=hexagon;perimeter=hexagonPerimeter2;whiteSpace=wrap;html=1;fixedSize=1;" vertex="1" parent="1">
          <mxGeometry x="1100" y="320" width="180" height="50" as="geometry" />
        </mxCell>
        <mxCell id="kak4AT-FFlZXdtaRiK7g-41" style="edgeStyle=orthogonalEdgeStyle;rounded=0;orthogonalLoop=1;jettySize=auto;html=1;exitX=0;exitY=0.5;exitDx=0;exitDy=0;entryX=0;entryY=0.5;entryDx=0;entryDy=0;" edge="1" parent="1" source="kak4AT-FFlZXdtaRiK7g-37" target="kak4AT-FFlZXdtaRiK7g-35">
          <mxGeometry relative="1" as="geometry">
            <Array as="points">
              <mxPoint x="1020" y="460" />
              <mxPoint x="1020" y="225" />
            </Array>
          </mxGeometry>
        </mxCell>
        <mxCell id="kak4AT-FFlZXdtaRiK7g-37" value="isGameOver = true" style="rounded=1;whiteSpace=wrap;html=1;" vertex="1" parent="1">
          <mxGeometry x="1125" y="435" width="130" height="50" as="geometry" />
        </mxCell>
        <mxCell id="kak4AT-FFlZXdtaRiK7g-51" style="edgeStyle=orthogonalEdgeStyle;rounded=0;orthogonalLoop=1;jettySize=auto;html=1;exitX=0.5;exitY=1;exitDx=0;exitDy=0;" edge="1" parent="1" source="kak4AT-FFlZXdtaRiK7g-46" target="kak4AT-FFlZXdtaRiK7g-47">
          <mxGeometry relative="1" as="geometry" />
        </mxCell>
        <mxCell id="kak4AT-FFlZXdtaRiK7g-54" style="edgeStyle=orthogonalEdgeStyle;rounded=0;orthogonalLoop=1;jettySize=auto;html=1;exitX=0;exitY=0.5;exitDx=0;exitDy=0;entryX=0;entryY=0.5;entryDx=0;entryDy=0;" edge="1" parent="1" source="kak4AT-FFlZXdtaRiK7g-46" target="kak4AT-FFlZXdtaRiK7g-49">
          <mxGeometry relative="1" as="geometry">
            <Array as="points">
              <mxPoint x="1080" y="585" />
              <mxPoint x="1080" y="900" />
            </Array>
          </mxGeometry>
        </mxCell>
        <mxCell id="kak4AT-FFlZXdtaRiK7g-46" value="if isGameOver" style="shape=hexagon;perimeter=hexagonPerimeter2;whiteSpace=wrap;html=1;fixedSize=1;" vertex="1" parent="1">
          <mxGeometry x="1125" y="560" width="130" height="50" as="geometry" />
        </mxCell>
        <mxCell id="kak4AT-FFlZXdtaRiK7g-52" style="edgeStyle=orthogonalEdgeStyle;rounded=0;orthogonalLoop=1;jettySize=auto;html=1;exitX=0.5;exitY=1;exitDx=0;exitDy=0;entryX=0.5;entryY=0;entryDx=0;entryDy=0;" edge="1" parent="1" source="kak4AT-FFlZXdtaRiK7g-47" target="kak4AT-FFlZXdtaRiK7g-48">
          <mxGeometry relative="1" as="geometry" />
        </mxCell>
        <mxCell id="kak4AT-FFlZXdtaRiK7g-47" value="invaders.clear()" style="rounded=1;whiteSpace=wrap;html=1;" vertex="1" parent="1">
          <mxGeometry x="1132.5" y="660" width="115" height="50" as="geometry" />
        </mxCell>
        <mxCell id="kak4AT-FFlZXdtaRiK7g-55" style="edgeStyle=orthogonalEdgeStyle;rounded=0;orthogonalLoop=1;jettySize=auto;html=1;exitX=0.5;exitY=1;exitDx=0;exitDy=0;entryX=0.5;entryY=0;entryDx=0;entryDy=0;" edge="1" parent="1" source="kak4AT-FFlZXdtaRiK7g-48" target="kak4AT-FFlZXdtaRiK7g-49">
          <mxGeometry relative="1" as="geometry" />
        </mxCell>
        <mxCell id="kak4AT-FFlZXdtaRiK7g-48" value="missiles.clear()" style="rounded=1;whiteSpace=wrap;html=1;" vertex="1" parent="1">
          <mxGeometry x="1132.5" y="770" width="115" height="50" as="geometry" />
        </mxCell>
        <mxCell id="kak4AT-FFlZXdtaRiK7g-49" value="End" style="rounded=1;whiteSpace=wrap;html=1;" vertex="1" parent="1">
          <mxGeometry x="1155" y="880" width="70" height="40" as="geometry" />
        </mxCell>
        <mxCell id="kak4AT-FFlZXdtaRiK7g-56" value="True" style="text;strokeColor=none;align=center;fillColor=none;html=1;verticalAlign=middle;whiteSpace=wrap;rounded=0;" vertex="1" parent="1">
          <mxGeometry x="1180" y="250" width="60" height="30" as="geometry" />
        </mxCell>
        <mxCell id="kak4AT-FFlZXdtaRiK7g-57" value="True" style="text;strokeColor=none;align=center;fillColor=none;html=1;verticalAlign=middle;whiteSpace=wrap;rounded=0;" vertex="1" parent="1">
          <mxGeometry x="1180" y="370" width="60" height="30" as="geometry" />
        </mxCell>
        <mxCell id="kak4AT-FFlZXdtaRiK7g-58" value="True" style="text;strokeColor=none;align=center;fillColor=none;html=1;verticalAlign=middle;whiteSpace=wrap;rounded=0;" vertex="1" parent="1">
          <mxGeometry x="1180" y="610" width="60" height="30" as="geometry" />
        </mxCell>
        <mxCell id="kak4AT-FFlZXdtaRiK7g-59" value="False" style="text;strokeColor=none;align=center;fillColor=none;html=1;verticalAlign=middle;whiteSpace=wrap;rounded=0;" vertex="1" parent="1">
          <mxGeometry x="1045" y="320" width="60" height="30" as="geometry" />
        </mxCell>
        <mxCell id="kak4AT-FFlZXdtaRiK7g-60" value="False" style="text;strokeColor=none;align=center;fillColor=none;html=1;verticalAlign=middle;whiteSpace=wrap;rounded=0;" vertex="1" parent="1">
          <mxGeometry x="1270" y="200" width="60" height="30" as="geometry" />
        </mxCell>
        <mxCell id="kak4AT-FFlZXdtaRiK7g-61" value="False" style="text;strokeColor=none;align=center;fillColor=none;html=1;verticalAlign=middle;whiteSpace=wrap;rounded=0;" vertex="1" parent="1">
          <mxGeometry x="1072.5" y="560" width="60" height="30" as="geometry" />
        </mxCell>
      </root>
    </mxGraphModel>
  </diagram>
</mxfile>
